<svg height="107" viewBox="0 0 107 107" width="107" xmlns="http://www.w3.org/2000/svg"><g fill="none" fill-rule="evenodd" transform="translate(7 7)"><circle cx="46.5" cy="46.5" r="45" stroke="#00c4d5" stroke-width="3"/><path d="m45 2h3v90h-3z" fill="#00c4d5"/><g stroke="#00c4d5" stroke-width="3"><path d="m39 2c-10 14.5819209-15 29.4152542-15 44.5s5 29.9180791 15 44.5"/><path d="m69 2c-10 14.5819209-15 29.4152542-15 44.5s5 29.9180791 15 44.5" transform="matrix(-1 0 0 1 123 0)"/><path d="m54 29c-10 14-15 28-15 42s5 28 15 42" transform="matrix(0 -1 1 0 -24.5 117.5)"/><path d="m54-3c-10 14.5-15 29-15 43.5s5 29 15 43.5" transform="matrix(0 -1 1 0 6 87)"/><path d="m54-10c-10 12-15 24-15 36s5 24 15 36" transform="matrix(0 -1 1 0 20.5 72.5)"/><path d="m53-11c-7.3333333 8-11 16-11 24s3.6666667 16 11 24" transform="matrix(0 -1 1 0 34.5 60.5)"/><path d="m54 11c-10 15-15 30-15 45s5 30 15 45" transform="matrix(0 -1 1 0 -9.5 102.5)"/></g></g></svg>